HIERARCHY
ROOT hip
{
	OFFSET 0.000000 0.000000 0.000000 
	CHANNELS 6 Xposition Yposition Zposition Xrotation Zrotation Yrotation
	JOINT abdomen
	{
		OFFSET 0.000000 3.402643 0.000000 
		CHANNELS 3 Xrotation Zrotation Yrotation
		JOINT chest
		{
			OFFSET 0.000000 8.438565 -0.680529 
			CHANNELS 3 Xrotation Zrotation Yrotation
			JOINT neck
			{
				OFFSET 0.000000 10.207942 -0.272212 
				CHANNELS 3 Xrotation Zrotation Yrotation
				JOINT head
				{
					OFFSET 0.000000 3.130431 0.000000 
					CHANNELS 3 Xrotation Zrotation Yrotation
					End Site
					{
						OFFSET 0.000000 3.130435 0.000000 
					}
				}
			}
			JOINT lCollar
			{
				OFFSET 3.470700 6.669187 -0.816635 
				CHANNELS 3 Yrotation Zrotation Xrotation
				JOINT lShldr
				{
					OFFSET 3.198488 0.000000 0.000000 
					CHANNELS 3 Zrotation Yrotation Xrotation
					JOINT lForeArm
					{
						OFFSET 10.139888 0.000000 0.000000 
						CHANNELS 3 Yrotation Zrotation Xrotation
						JOINT lHand
						{
							OFFSET 8.370511 0.000000 0.000000 
							CHANNELS 3 Zrotation Yrotation Xrotation
							End Site
							{
								OFFSET 4.083176 0.000000 0.000000 
							}
						}
					}
				}
			}
			JOINT rCollar
			{
				OFFSET -3.470700 6.669187 -0.816635 
				CHANNELS 3 Yrotation Zrotation Xrotation
				JOINT rShldr
				{
					OFFSET -3.198488 0.000000 0.000000 
					CHANNELS 3 Zrotation Yrotation Xrotation
					JOINT rForeArm
					{
						OFFSET -10.139888 0.000000 0.000000 
						CHANNELS 3 Yrotation Zrotation Xrotation
						JOINT rHand
						{
							OFFSET -8.370511 0.000000 0.000000 
							CHANNELS 3 Zrotation Yrotation Xrotation
							End Site
							{
								OFFSET -4.083176 0.000000 0.000000 
							}
						}
					}
				}
			}
		}
	}
	JOINT lThigh
	{
		OFFSET 5.308129 -1.633274 1.361059 
		CHANNELS 3 Xrotation Zrotation Yrotation
		JOINT lShin
		{
			OFFSET -2.041588 -20.007561 0.000000 
			CHANNELS 3 Xrotation Zrotation Yrotation
			JOINT lFoot
			{
				OFFSET 0.000000 -19.190928 -1.224953 
				CHANNELS 3 Xrotation Yrotation Zrotation
				End Site
				{
					OFFSET 0.000000 -2.449906 4.627600 
				}
			}
		}
	}
	JOINT rThigh
	{
		OFFSET -5.308129 -1.633274 1.361059 
		CHANNELS 3 Xrotation Zrotation Yrotation
		JOINT rShin
		{
			OFFSET 2.041588 -20.007561 0.000000 
			CHANNELS 3 Xrotation Zrotation Yrotation
			JOINT rFoot
			{
				OFFSET 0.000000 -19.190928 -1.224953 
				CHANNELS 3 Xrotation Yrotation Zrotation
				End Site
				{
					OFFSET 0.000000 -2.449906 4.627600 
				}
			}
		}
	}
}
MOTION
Frames: 19
Frame Time: 0.016667
1.339946 46.601212 1.777192 17.319984 6.984534 -20.490326 24.808910 -9.912794 4.390909 -3.321356 -5.737520 5.270514 27.938324 0.947265 -0.068350 -30.089428 6.831874 19.342144 10.956174 20.406769 20.360683 -93.825684 1.181307 20.026464 -48.583740 27.751425 25.380232 3.227449 -42.795040 -8.592705 -1.430224 -9.062513 24.424826 70.886391 39.879047 106.093994 -87.273880 -59.101456 -121.727287 43.476810 41.163719 8.536735 -19.616253 12.681623 20.061426 37.066330 -10.234840 -3.897084 -12.500425 0.159891 -4.985057 -49.545681 -18.162090 -2.235391 73.152946 12.187431 8.469186 -0.424799 -12.102845 15.434183 
1.261114 46.781261 1.769482 17.711245 6.867352 -20.445711 24.808910 -9.912794 4.390909 -3.667578 -5.523149 5.317201 27.333189 0.517577 -0.087887 -29.672056 7.713472 20.398287 11.579350 20.531948 20.093172 -93.084152 2.796570 20.016891 -49.442696 25.924805 23.307257 8.462993 -38.003601 -10.791185 -1.255555 -9.762445 24.423214 70.751640 41.424953 105.846497 84.030426 -121.995361 49.256756 42.011082 38.919189 4.942519 -19.401424 12.681748 20.072845 35.851669 -10.017403 -3.769033 -11.931341 0.429501 -5.601557 -50.426201 -18.573011 -2.310452 73.800911 12.089037 8.493112 0.156893 -11.857601 15.243720 
1.115641 46.998711 1.811160 18.200592 6.549970 -20.363070 24.808910 -9.912794 4.390909 -4.347287 -5.065248 5.421486 27.314569 -0.048828 -0.136727 -29.243639 8.488712 21.309875 12.228086 20.723347 19.798101 -92.033104 4.714949 19.982828 -50.004585 23.469875 20.575247 14.058696 -34.104198 -12.172916 -1.267584 -10.489091 24.390594 70.400314 43.246609 105.519371 76.028175 -124.342094 41.492882 39.397655 35.402317 0.069090 -18.885908 12.821155 20.185209 34.192097 -9.743903 -3.580463 -11.181551 0.551283 -6.245355 -50.636436 -18.815222 -2.377756 73.416481 12.138674 8.482044 0.740769 -11.489773 15.199718 
0.970177 47.216145 1.852836 18.687958 6.231873 -20.290773 24.808910 -9.912794 4.390909 -5.035093 -4.607489 5.525259 27.287014 -0.605466 -0.175875 -28.809168 9.252096 22.228207 12.879524 20.916332 19.496910 -90.969429 6.630735 19.988970 -50.677128 21.036713 17.865273 19.307570 -30.119026 -13.054917 -1.293574 -11.210567 24.359375 70.030388 45.072144 105.165154 69.109818 -127.210304 34.810799 37.251114 31.738592 -4.416533 -18.365780 12.954086 20.307806 32.516945 -9.449229 -3.423026 -10.397798 0.697021 -6.896957 -50.867451 -19.062138 -2.434043 73.023552 12.167585 8.446948 1.330796 -11.071589 15.173156 
0.781725 47.411407 1.952564 19.000383 5.972954 -20.103678 24.808910 -9.912794 4.390909 -5.887780 -4.276432 5.600921 27.865759 -1.181632 -0.214999 -28.452625 9.865943 22.927189 13.518781 20.998989 19.220184 -89.814430 8.341546 19.969849 -50.570915 19.033464 15.765486 23.785730 -27.942957 -13.574944 -1.446437 -11.686288 24.297655 69.279968 46.969727 104.674454 64.555862 -130.364227 30.402594 34.976410 27.272913 -8.535774 -17.593164 12.942279 20.390486 30.776297 -9.135598 -3.245319 -9.632565 0.775508 -7.396150 -50.212143 -19.286201 -2.543786 71.418724 12.118447 8.291388 1.838099 -10.520762 15.457028 
0.593276 47.606659 2.052292 19.317511 5.722543 -19.917019 24.808910 -9.912794 4.390909 -6.739588 -3.945455 5.677472 28.435871 -1.767559 -0.263848 -28.090179 10.471978 23.630527 14.169052 21.086750 18.936550 -88.665154 10.052781 19.985085 -50.537945 17.015526 13.701384 28.150717 -25.731956 -13.891668 -1.607311 -12.165696 24.248228 68.473572 48.857105 104.118011 60.647762 -133.712219 26.636724 33.134350 22.683821 -12.329625 -16.824190 12.926515 20.474342 29.055641 -8.824754 -3.082507 -8.888005 0.846285 -7.897854 -49.574039 -19.509197 -2.653756 69.823723 12.070267 8.144635 2.346528 -9.953115 15.698588 
0.358575 47.731422 2.195903 19.359373 5.540546 -19.596663 24.808910 -9.912794 4.390909 -7.573007 -3.867583 5.696297 29.377056 -2.236297 -0.303266 -27.884119 10.972018 24.330729 14.723443 21.016859 18.732227 -87.462982 11.426560 19.936430 -49.690407 15.613696 12.280818 31.975729 -24.409031 -14.202955 -1.788548 -12.186999 24.201023 66.849541 50.794846 103.157417 58.026447 -136.947693 24.866392 31.459888 18.737883 -14.940178 -15.904765 12.845638 20.569342 27.630970 -8.595241 -2.945158 -8.304608 0.842146 -8.285689 -48.123791 -19.706608 -2.821192 67.369926 11.816237 7.867342 2.933970 -9.013112 16.252258 
0.123868 47.856178 2.339516 19.405659 5.366841 -19.276487 24.808910 -9.912794 4.390909 -8.407995 -3.799366 5.724883 30.309118 -2.705030 -0.342338 -27.667013 11.465664 25.025015 15.281129 20.941572 18.518602 -86.251289 12.811512 19.915956 -48.881824 14.185922 10.901789 35.760895 -23.061897 -14.423137 -1.967743 -12.208386 24.165222 65.101494 52.714615 102.070595 55.668201 -140.232635 23.371286 30.006958 14.726989 -17.386026 -14.979626 12.771893 20.625286 26.215183 -8.370230 -2.797511 -7.717949 0.836233 -8.694148 -46.668907 -19.911697 -2.988905 64.909027 11.563149 7.607596 3.491111 -8.079681 16.759466 
-0.151706 47.883949 2.513319 19.069386 5.288930 -18.823103 24.808910 -9.912794 4.390909 -8.995918 -4.062205 5.658669 31.299366 -3.095638 -0.372134 -27.551012 11.872823 25.806536 15.640047 20.445232 18.508802 -84.819588 13.830454 19.754148 -47.406349 13.416645 9.964704 38.988712 -22.047167 -14.583127 -2.010476 -11.793285 24.172817 62.189789 54.699390 100.314056 -125.877487 -36.588936 -156.480515 29.393585 12.090126 -18.511637 -14.049541 12.708592 20.707235 25.568066 -8.330213 -2.724345 -7.473200 0.575921 -8.817529 -44.564232 -20.085144 -3.134729 62.052380 10.994091 7.151350 4.076635 -6.397904 17.306763 
-0.427284 47.911713 2.687120 18.739326 5.219759 -18.360006 24.808910 -9.912794 4.390909 -9.583011 -4.315309 5.601649 32.290543 -3.476473 -0.411178 -27.418133 12.291538 26.574316 15.989357 19.946457 18.501143 -83.382271 14.853761 19.622416 -45.955967 12.626902 9.048180 42.192684 -21.025967 -14.686568 -2.062302 -11.382104 24.179369 59.027874 56.627861 98.287422 -127.371933 -33.416931 -156.249207 28.834040 9.430171 -19.601828 -13.124772 12.645952 20.770142 24.918404 -8.294216 -2.661006 -7.212373 0.348002 -8.945958 -42.463497 -20.250154 -3.356246 59.217411 10.361288 6.791057 4.659627 -4.753565 17.831661 
-0.731043 47.814167 2.850889 18.302683 5.322603 -17.714888 24.808910 -9.912794 4.390909 -10.032825 -4.938462 5.469282 32.996101 -3.642475 -0.430681 -27.313583 12.499263 27.352547 15.975575 19.239582 18.703180 -81.951530 15.683152 19.403921 -44.059380 12.257210 7.678859 44.818348 -20.090609 -14.502983 -2.126657 -10.744402 24.203678 54.675236 58.699142 95.463058 -128.399109 -30.524183 -154.919556 29.334515 8.008673 -19.735647 -12.682946 12.650484 20.831562 25.353615 -8.320622 -2.726716 -7.373803 -0.352283 -8.646864 -40.350574 -20.439079 -3.530460 56.736362 9.404284 6.315753 4.778368 -2.621473 18.158796 
-1.034801 47.716610 3.014659 17.865271 5.434710 -17.070713 24.808910 -9.912794 4.390909 -10.470942 -5.561779 5.347301 33.692089 -3.818242 -0.450823 -27.204489 12.702141 28.121407 15.963955 18.541977 18.905233 -80.514969 16.521467 19.204521 -42.166996 11.850949 6.318079 47.429890 -19.159121 -14.280306 -2.191612 -10.106678 24.229065 49.853039 60.633705 92.161026 -129.464249 -27.659595 -153.565338 29.838829 6.598560 -19.876650 -12.253465 12.680032 20.863144 25.778166 -8.348705 -2.771135 -7.515183 -1.044714 -8.388106 -38.227947 -20.602947 -3.704514 54.256329 8.398518 5.887320 4.924953 -0.505909 18.494707 
-1.342672 47.521259 3.182162 16.882929 6.005440 -16.450052 24.808910 -9.912794 4.390909 -10.340191 -6.789732 5.093451 33.822594 -4.091660 -0.470342 -27.155264 12.953714 28.798023 15.971250 17.807508 19.104559 -79.227821 17.273371 19.003473 -39.899158 11.342628 3.599178 48.948311 -18.524229 -13.658182 -1.945706 -9.578945 24.296436 44.324867 62.779255 88.247177 -130.034073 -25.250793 -151.628143 31.189325 5.999335 -19.473034 -11.687254 12.348101 20.795570 26.891340 -8.519619 -2.889061 -8.002758 -1.782493 -7.652826 -36.187775 -21.130535 -3.990159 52.793568 7.059943 5.413826 3.987035 1.712832 18.600603 
-1.650547 47.325893 3.349651 15.900826 6.578382 -15.848413 24.808910 -9.912794 4.390909 -10.196339 -8.008912 4.832257 33.963799 -4.365069 -0.499575 -27.108944 13.199641 29.477190 15.990314 17.085611 19.306444 -77.938812 18.030411 18.819809 -37.656315 10.735082 0.914935 50.476513 -17.900436 -13.032347 -1.708628 -9.054686 24.375572 38.052048 64.728760 83.573669 -130.680374 -22.866060 -149.705429 32.532005 5.392061 -19.077475 -11.138975 12.022419 20.742643 28.026281 -8.681775 -3.030692 -8.477072 -2.515470 -6.962200 -34.137135 -21.638247 -4.300802 51.368958 5.721920 4.977902 3.069607 3.935747 18.744608 
-1.989458 47.066315 3.420429 15.253185 6.939178 -15.467578 24.808910 -9.912794 4.390909 -9.921530 -8.886946 4.664050 33.184254 -4.560374 -0.500352 -26.980539 13.388980 29.886957 16.121283 16.847723 19.323336 -77.200676 18.763163 18.779888 -35.597748 9.953549 -1.927528 50.771877 -17.280416 -11.959319 -1.497319 -9.133585 24.406513 31.861059 66.931786 78.775421 -130.815308 -21.179085 -147.780640 33.720379 4.937522 -18.793289 -11.236965 12.267186 20.819853 29.825155 -8.785303 -3.118198 -9.056147 -3.269018 -6.290658 -33.221104 -21.659134 -4.349356 51.353779 4.736011 4.738351 1.531689 4.841738 18.829966 
-2.328372 46.806736 3.491195 14.599289 7.300618 -15.095921 24.808910 -9.912794 4.390909 -9.646410 -9.746113 4.477522 32.405617 -4.765438 -0.510114 -26.846704 13.574556 30.306362 16.236769 16.618763 19.350542 -76.470955 19.504768 18.759459 -33.590977 9.073433 -4.734115 51.079216 -16.665239 -10.874807 -1.298961 -9.207437 24.437067 24.627966 68.881409 72.925568 -131.006927 -19.495487 -145.881287 34.911400 4.464798 -18.517086 -11.336654 12.535797 20.896557 31.619223 -8.882797 -3.245276 -9.561448 -4.047894 -5.622192 -32.291553 -21.667440 -4.410618 51.344086 3.740014 4.524455 0.004700 5.746975 18.928495 
-2.679256 46.586491 3.478482 14.316850 7.338668 -15.086235 24.808910 -9.912794 4.390909 -9.365540 -10.029244 4.423139 31.070759 -5.009561 -0.519865 -26.777704 13.836671 30.526417 16.669830 16.650711 19.198126 -75.963058 20.337666 18.824589 -32.338448 7.877849 -6.674691 50.369427 -15.934647 -9.505754 -0.945412 -9.810545 24.487041 17.966112 70.685898 67.390251 -130.921509 -18.415941 -144.162643 35.585720 4.012300 -18.501184 -11.834974 13.317605 21.149719 33.470329 -8.806241 -3.337534 -9.682365 -4.477772 -5.543646 -32.401203 -21.083157 -4.230894 52.234478 3.185588 4.516254 -1.445509 5.562092 18.926916 
-3.030147 46.366261 3.465753 14.028481 7.367630 -15.068123 24.808910 -9.912794 4.390909 -9.073589 -10.302672 4.367189 29.745758 -5.253683 -0.529599 -26.704123 14.096078 30.758890 17.090385 16.686966 19.043556 -75.444572 21.179577 18.909258 -31.137306 6.627537 -8.575608 49.677303 -15.206749 -8.146986 -0.590797 -10.413400 24.538254 10.133360 72.233994 60.676975 -130.870529 -17.335340 -142.462860 36.263577 3.564070 -18.482813 -12.333243 14.099427 21.395802 35.320786 -8.737464 -3.430125 -9.774926 -4.881548 -5.473198 -32.518764 -20.517185 -4.007308 53.129761 2.656045 4.462129 -2.901808 5.424274 18.939217 
-3.422515 46.238400 3.363540 14.565769 6.668869 -15.074571 24.808910 -9.912794 4.390909 -9.207084 -9.726512 4.487149 28.325764 -5.107228 -0.500416 -26.580938 14.138063 30.705036 17.298473 17.104965 18.840061 -75.058464 22.096952 19.078392 -31.019188 5.066463 -9.075499 48.915440 -14.425364 -6.872023 -0.695973 -11.223841 24.492256 4.135930 73.431351 55.412281 -130.713287 -16.799416 -141.352386 36.451218 3.186093 -18.676750 -13.816573 15.756463 21.929281 37.329884 -8.112754 -3.415645 -8.986694 -5.660866 -6.307784 -33.186962 -19.058687 -3.446130 53.838131 2.878785 4.555440 -3.680410 4.294537 18.617210 
